<svg width="35" height="35" viewBox="0 0 35 35" fill="none" xmlns="http://www.w3.org/2000/svg">
<g clip-path="url(#clip0_27_80)">
<path d="M18.6846 0.0358582C27.5649 0.0358582 34.8306 7.30152 34.8306 16.1818V18.7044C34.8306 27.5847 27.5648 34.8504 18.6846 34.8504H16.162C7.28172 34.8504 0.0160522 27.5847 0.0160522 18.7044V16.1818C0.0160522 7.30152 7.28172 0.0358582 16.162 0.0358582H18.6846ZM17.7407 8.78615L17.5161 8.78586C15.6455 8.78586 13.7749 8.84769 13.7749 8.84769C11.0427 8.84769 8.82788 11.0625 8.82788 13.7947C8.82788 13.7947 8.7711 15.4009 8.76637 17.1249L8.76605 17.3504C8.76605 19.2807 8.82788 21.277 8.82788 21.277C8.82788 24.0092 11.0427 26.224 13.7749 26.224C13.7749 26.224 15.5238 26.2859 17.3306 26.2859C19.2609 26.2859 21.3191 26.224 21.3191 26.224C24.0512 26.224 26.2042 24.071 26.2042 21.3389C26.2042 21.3389 26.2661 19.365 26.2661 17.474L26.2649 17.0303C26.2565 15.3337 26.2042 13.7328 26.2042 13.7328C26.2042 11.0007 24.0512 8.84769 21.319 8.84769C21.319 8.84769 19.5381 8.79071 17.7407 8.78615ZM17.5161 10.3608C19.05 10.3608 21.0167 10.4115 21.0167 10.4115C23.2571 10.4115 24.6403 11.7948 24.6403 14.0352C24.6403 14.0352 24.6911 15.9683 24.6911 17.4851C24.6911 19.0357 24.6403 21.0364 24.6403 21.0364C24.6403 23.2768 23.2571 24.6601 21.0167 24.6601C21.0167 24.6601 19.2774 24.7027 17.7683 24.7098L17.3639 24.7108C15.8824 24.7108 14.0773 24.6601 14.0773 24.6601C11.8369 24.6601 10.3918 23.2149 10.3918 20.9746C10.3918 20.9746 10.3411 18.9666 10.3411 17.3837C10.3411 15.9022 10.3918 14.0352 10.3918 14.0352C10.3918 11.7948 11.837 10.4115 14.0773 10.4115C14.0773 10.4115 15.9821 10.3608 17.5161 10.3608ZM17.516 13.0536C15.0405 13.0536 13.0338 15.0603 13.0338 17.5358C13.0338 20.0113 15.0405 22.018 17.516 22.018C19.9915 22.018 21.9982 20.0113 21.9982 17.5358C21.9982 15.0603 19.9915 13.0536 17.516 13.0536ZM17.516 14.6191C19.1269 14.6191 20.4327 15.925 20.4327 17.5358C20.4327 19.1466 19.1269 20.4525 17.516 20.4525C15.9052 20.4525 14.5993 19.1466 14.5993 17.5358C14.5993 15.925 15.9052 14.6191 17.516 14.6191ZM22.2127 11.8097C21.6146 11.8097 21.1297 12.297 21.1297 12.8981C21.1297 13.4992 21.6146 13.9865 22.2127 13.9865C22.8108 13.9865 23.2957 13.4992 23.2957 12.8981C23.2957 12.297 22.8108 11.8097 22.2127 11.8097Z" fill="#FFF5D6"/>
</g>
<defs>
<clipPath id="clip0_27_80">
<rect width="35" height="35" fill="white"/>
</clipPath>
</defs>
</svg>
