<svg width="89" height="61" viewBox="0 0 89 61" fill="none" xmlns="http://www.w3.org/2000/svg">
<path d="M12.1 37.93V39.4C12.1 40.1933 12.1 40.9867 12.1 41.78C12.1467 42.5267 12.2633 43.2267 12.45 43.88C12.2167 46.1667 12.03 48.4533 11.89 50.74C11.7967 53.0267 11.75 55.3133 11.75 57.6L10.21 57.67C9.97667 57.67 9.79 57.5067 9.65 57.18C9.55667 56.9 9.46333 56.5267 9.37 56.06C9.32333 55.64 9.27667 55.1733 9.23 54.66C9.23 54.1467 9.23 53.68 9.23 53.26V51.86H8.53C8.53 52.14 8.46 52.7467 8.32 53.68C8.18 54.6133 7.99333 55.5933 7.76 56.62C7.57333 57.6467 7.31667 58.5567 6.99 59.35C6.66333 60.19 6.29 60.61 5.87 60.61C5.54333 60.61 5.26333 60.2833 5.03 59.63C4.79667 59.0233 4.61 58.3233 4.47 57.53C4.33 56.7367 4.21333 55.9667 4.12 55.22C4.02667 54.52 3.98 54.0533 3.98 53.82C3.56 49.7133 3.35 45.6067 3.35 41.5C3.35 37.3467 3.16333 33.2167 2.79 29.11C2.65 27.71 2.44 26.3567 2.16 25.05C1.88 23.6967 1.57667 22.3433 1.25 20.99C0.97 19.6367 0.713334 18.2833 0.48 16.93C0.293334 15.5767 0.2 14.1533 0.2 12.66C0.2 10.56 0.736667 8.92666 1.81 7.76C2.88333 6.54666 4.21333 5.63666 5.8 5.03C7.43333 4.42333 9.18333 4.05 11.05 3.91C12.9167 3.77 14.6433 3.7 16.23 3.7C19.45 3.7 22.6 3.93333 25.68 4.4C28.8067 4.86667 31.5833 5.77667 34.01 7.13C36.4367 8.48333 38.3733 10.3967 39.82 12.87C41.3133 15.2967 42.06 18.47 42.06 22.39C42.06 25.7033 41.5467 28.5967 40.52 31.07C39.54 33.5433 38.14 35.5967 36.32 37.23C34.5 38.8633 32.2833 40.1 29.67 40.94C27.1033 41.7333 24.2333 42.13 21.06 42.13C20.92 42.13 20.6167 42.13 20.15 42.13C19.6833 42.0833 19.1933 42.0367 18.68 41.99C18.1667 41.8967 17.7 41.78 17.28 41.64C16.9067 41.4533 16.72 41.22 16.72 40.94L16.93 40.45C17.7233 40.4967 18.5167 40.5433 19.31 40.59C20.1033 40.59 20.8967 40.59 21.69 40.59C23.09 40.59 24.4667 40.52 25.82 40.38C27.22 40.24 28.5733 39.96 29.88 39.54C31.1867 39.12 32.4 38.5367 33.52 37.79C34.5467 37.09 35.5033 36.2033 36.39 35.13C35.4567 36.2033 34.4533 37.09 33.38 37.79C32.2133 38.5367 30.9533 39.0967 29.6 39.47C28.2933 39.8433 26.9167 40.1 25.47 40.24C24.07 40.3333 22.6467 40.38 21.2 40.38C20.5467 40.38 19.87 40.38 19.17 40.38C18.47 40.3333 17.7933 40.2867 17.14 40.24L17.07 38.91C16.6967 38.9567 16.37 39.0033 16.09 39.05C15.81 39.05 15.5533 39.05 15.32 39.05C14.76 39.05 14.2467 38.98 13.78 38.84C13.3133 38.6533 12.7533 38.35 12.1 37.93ZM18.47 11.68C16.8833 11.68 15.2033 11.75 13.43 11.89C11.6567 11.9833 10.0233 12.2867 8.53 12.8L8.18 13.36C9.95333 12.8467 11.5867 12.5433 13.08 12.45C14.5733 12.3567 15.9967 12.31 17.35 12.31H17.63C19.6367 12.31 21.62 12.38 23.58 12.52C25.54 12.6133 27.29 13.01 28.83 13.71C30.37 14.3633 31.6067 15.4133 32.54 16.86C33.52 18.26 34.01 20.2667 34.01 22.88C34.01 23.6733 33.94 24.42 33.8 25.12C33.66 25.82 33.4733 26.52 33.24 27.22C33.4267 26.5667 33.5667 25.9133 33.66 25.26C33.8 24.56 33.87 23.86 33.87 23.16C33.87 21.3867 33.5667 19.7767 32.96 18.33C32.3533 16.8833 31.3733 15.5767 30.02 14.41L29.53 14.13C28.83 13.8033 27.9433 13.5467 26.87 13.36C25.8433 13.1733 24.7467 13.0333 23.58 12.94C22.4133 12.8 21.2233 12.73 20.01 12.73C18.8433 12.6833 17.7467 12.66 16.72 12.66H14.76C13.92 12.66 12.94 12.73 11.82 12.87C10.7467 13.01 9.81333 13.1967 9.02 13.43C9.02 14.5967 9.11333 15.7633 9.3 16.93C9.53333 18.05 9.76667 19.17 10 20.29L10.77 23.65C11.05 24.77 11.2367 25.89 11.33 27.01L11.96 35.76C12.2867 35.5267 12.6367 35.34 13.01 35.2C13.43 35.0133 13.9667 34.92 14.62 34.92H14.97C15.9967 35.2467 17.0467 35.4333 18.12 35.48C19.24 35.5267 20.3367 35.55 21.41 35.55C23.65 35.55 25.6333 35.34 27.36 34.92C29.1333 34.5 30.6267 33.8 31.84 32.82C33.0533 31.7933 33.9633 30.4633 34.57 28.83C35.2233 27.15 35.55 25.0967 35.55 22.67C35.55 21.5967 35.3633 20.43 34.99 19.17C34.6633 17.8633 34.15 16.65 33.45 15.53C32.75 14.41 31.8633 13.4767 30.79 12.73C29.7633 11.9833 28.5733 11.5867 27.22 11.54C28.5267 11.68 29.6933 12.1 30.72 12.8C31.7467 13.5 32.61 14.3867 33.31 15.46C34.01 16.5333 34.5233 17.7233 34.85 19.03C35.2233 20.29 35.41 21.5267 35.41 22.74C35.41 26.9867 34.3833 30.1133 32.33 32.12C30.2767 34.1267 27.1267 35.13 22.88 35.13C21.8533 35.13 20.8267 35.0833 19.8 34.99L16.72 34.71C18.26 34.3367 19.8233 34.1267 21.41 34.08C23.0433 33.9867 24.5833 33.8 26.03 33.52C27.5233 33.24 28.8533 32.7267 30.02 31.98C31.2333 31.1867 32.2133 29.88 32.96 28.06L33.59 28.27C34.15 26.73 34.43 25.12 34.43 23.44C34.43 20.8733 33.9867 18.82 33.1 17.28C32.26 15.74 31.1167 14.55 29.67 13.71C28.2233 12.87 26.52 12.3333 24.56 12.1C22.6467 11.82 20.6167 11.68 18.47 11.68ZM40.66 22.25C40.66 20.3367 40.4033 18.5867 39.89 17C39.3767 15.3667 38.5833 13.78 37.51 12.24C38.49 13.78 39.2133 15.4367 39.68 17.21C40.1933 18.9367 40.45 20.71 40.45 22.53C40.45 25.47 39.8667 28.2933 38.7 31C39.3067 29.6933 39.7733 28.3167 40.1 26.87C40.4733 25.33 40.66 23.79 40.66 22.25ZM28.9 6.43C29.5533 6.66333 30.1833 6.87333 30.79 7.06C31.4433 7.2 32.0967 7.41 32.75 7.69C31.5833 7.08333 30.3 6.66333 28.9 6.43ZM35.55 9.79C35.3633 9.41667 34.9433 9.02 34.29 8.6C33.6833 8.22667 33.1933 7.94667 32.82 7.76C33.2867 8.13333 33.73 8.43667 34.15 8.67C34.6167 8.95 35.0833 9.32333 35.55 9.79ZM82.9734 55.15C82.6 55.0567 82.18 54.8933 81.7134 54.66C81.2934 54.4733 80.9667 54.1933 80.7334 53.82C80.7334 52.1867 80.6867 50.5767 80.5934 48.99C80.5467 47.3567 80.5234 45.7233 80.5234 44.09C80.5234 41.57 80.5934 39.05 80.7334 36.53C80.92 34.01 81.0134 31.49 81.0134 28.97C80.64 32.9833 80.4534 36.9967 80.4534 41.01C80.4534 44.9767 80.3367 48.9667 80.1034 52.98C79.45 52.0467 79.0534 50.9967 78.9134 49.83C78.82 48.6167 78.7734 47.45 78.7734 46.33L78.9134 42.83L79.6834 42.48C79.5434 41.1733 79.4734 39.82 79.4734 38.42C79.4734 36.7867 79.5434 35.2 79.6834 33.66C79.8234 32.0733 79.9634 30.4633 80.1034 28.83H79.5434L78.8434 39.82L79.1934 28.83C77.9334 28.83 76.6967 28.9467 75.4834 29.18C74.27 29.4133 73.0334 29.53 71.7734 29.53C69.3934 29.53 67.0134 29.4833 64.6334 29.39C62.3 29.2967 59.9434 29.2033 57.5634 29.11C57.5634 31.7233 57.4234 34.3133 57.1434 36.88C56.91 39.4 56.7934 41.9433 56.7934 44.51C56.7934 44.8833 56.8167 45.3733 56.8634 45.98C56.9567 46.54 57.0034 47.1467 57.0034 47.8C57.0034 48.4067 56.9334 48.9433 56.7934 49.41C56.6534 49.8767 56.3967 50.18 56.0234 50.32L55.5334 50.18L55.6034 42.9C55.51 44.1133 55.44 45.3267 55.3934 46.54C55.3467 47.7533 55.3234 48.9667 55.3234 50.18C55.1834 50.1333 54.9734 50.11 54.6934 50.11C54.3667 50.11 54.1567 50.1333 54.0634 50.18C54.11 50.32 54.1334 50.5067 54.1334 50.74C54.1334 51.86 53.5734 52.56 52.4534 52.84C52.0334 52.6533 51.6834 52.49 51.4034 52.35C51.1234 52.21 50.89 52.0233 50.7034 51.79C50.5167 51.51 50.3767 51.1833 50.2834 50.81C50.19 50.4367 50.1434 49.9233 50.1434 49.27V48.08L49.7934 50.39C49.42 50.0167 49.1867 49.62 49.0934 49.2C49 48.78 48.9534 48.3367 48.9534 47.87C48.9534 46.7033 49 45.56 49.0934 44.44C49.1867 43.2733 49.2334 42.1067 49.2334 40.94L49.7934 40.59C49.6534 39.05 49.5834 37.51 49.5834 35.97C49.5834 34.4767 49.6067 32.96 49.6534 31.42C49.7467 29.88 49.7934 28.34 49.7934 26.8C49.7934 25.7267 49.77 24.63 49.7234 23.51C49.6767 22.39 49.56 21.2933 49.3734 20.22H48.9534C49.0467 22.0867 49.0934 23.9533 49.0934 25.82C49.14 27.6867 49.1634 29.5533 49.1634 31.42V40.17C49.1634 35.5033 49.0234 30.8367 48.7434 26.17C48.51 21.5033 48.3934 16.8367 48.3934 12.17C48.6267 9.93 48.8134 7.99333 48.9534 6.36C49.14 4.72666 49.35 2.93 49.5834 0.969998C50.05 1.01666 50.5634 1.08666 51.1234 1.18C51.73 1.27333 52.0334 1.64666 52.0334 2.3L51.8934 3.49H52.8034C52.8967 3.21 53.0134 2.88333 53.1534 2.51C53.34 2.09 53.55 1.71666 53.7834 1.39C54.0167 1.01667 54.2734 0.713332 54.5534 0.479996C54.88 0.199997 55.23 0.059997 55.6034 0.059997C56.07 0.059997 56.42 0.409997 56.6534 1.11C56.9334 1.76333 57.1434 2.62666 57.2834 3.7C57.4234 4.77333 57.5167 6.03333 57.5634 7.48C57.61 8.88 57.6334 10.3033 57.6334 11.75C57.6334 12.5433 57.61 13.3133 57.5634 14.06C57.5634 14.8067 57.5634 15.53 57.5634 16.23C57.5634 17.1633 57.5634 18.05 57.5634 18.89C57.61 19.6833 57.6567 20.4067 57.7034 21.06H61.4134L61.9734 21.9C62.6267 21.8067 63.2567 21.7367 63.8634 21.69C64.47 21.6433 65.1 21.62 65.7534 21.62C66.2667 21.62 66.8034 21.6433 67.3634 21.69C67.9234 21.69 68.46 21.69 68.9734 21.69C69.86 21.69 70.7234 21.6433 71.5634 21.55C72.45 21.4567 73.3367 21.2933 74.2234 21.06V20.64C72.59 20.8733 70.98 21.0133 69.3934 21.06C67.9467 21.06 66.4767 21.06 64.9834 21.06C67.27 20.9667 69.6034 20.8033 71.9834 20.57C74.4567 20.3367 76.93 20.1733 79.4034 20.08C79.4034 17.3733 79.4967 14.6667 79.6834 11.96C79.87 9.25333 79.9634 6.57 79.9634 3.91L79.8934 2.44L81.6434 2.3C81.83 2.3 81.97 2.41666 82.0634 2.65C82.2034 2.83666 82.32 3.07 82.4134 3.35C82.5067 3.58333 82.5767 3.84 82.6234 4.12C82.67 4.35333 82.6934 4.51666 82.6934 4.61C82.8334 4.47 82.9967 4.26 83.1834 3.98C83.37 3.7 83.5567 3.42 83.7434 3.14C83.9767 2.86 84.1867 2.62666 84.3734 2.44C84.56 2.20666 84.7 2.09 84.7934 2.09C85.5867 2.09 86.2167 2.23 86.6834 2.51C87.15 2.79 87.5 3.18666 87.7334 3.7C88.0134 4.16666 88.1767 4.70333 88.2234 5.31C88.3167 5.91666 88.3634 6.52333 88.3634 7.13C88.3634 7.59666 88.34 8.06333 88.2934 8.53C88.2934 8.95 88.2934 9.34666 88.2934 9.72V18.47C88.2934 22.9967 88.0367 27.5233 87.5234 32.05C87.01 36.53 86.7534 41.01 86.7534 45.49C86.7534 45.8167 86.8 46.4233 86.8934 47.31C87.0334 48.15 87.1034 48.99 87.1034 49.83C87.1034 50.4833 87.0334 51.0433 86.8934 51.51C86.7534 51.93 86.4967 52.14 86.1234 52.14C85.7967 50.4133 85.5867 48.64 85.4934 46.82C85.4934 48.5933 85.5634 50.3667 85.7034 52.14L85.0734 52C84.98 52.6533 84.77 53.2833 84.4434 53.89C84.1634 54.4967 83.6734 54.9167 82.9734 55.15ZM50.7034 39.75C50.8434 38.07 50.9134 36.3667 50.9134 34.64C50.9134 33.4267 50.89 32.2367 50.8434 31.07C50.7967 29.9967 50.7267 28.9 50.6334 27.78C50.6334 29.32 50.6334 30.86 50.6334 32.4C50.68 33.9867 50.7034 35.5967 50.7034 37.23V39.75ZM65.6134 22.88C66.3134 22.88 67.0134 22.8567 67.7134 22.81C68.46 22.7633 69.1834 22.6933 69.8834 22.6H68.4834C67.5034 22.6 66.5234 22.6233 65.5434 22.67C64.61 22.7167 63.6534 22.74 62.6734 22.74C63.1867 22.8333 63.6767 22.88 64.1434 22.88H65.6134ZM57.7734 22.81H62.2534C62.1134 22.81 61.9734 22.7867 61.8334 22.74C61.4134 22.6933 60.9234 22.6467 60.3634 22.6C59.8034 22.5533 59.2667 22.5067 58.7534 22.46C58.2867 22.4133 57.96 22.3667 57.7734 22.32V22.81ZM85.6334 36.95C85.54 38.49 85.4934 40.03 85.4934 41.57C85.5867 40.0767 85.68 38.5367 85.7734 36.95C85.9134 35.3167 86.0767 33.7067 86.2634 32.12C85.9834 33.7067 85.7734 35.3167 85.6334 36.95ZM61.9734 27.71C60.5734 27.57 59.1734 27.5 57.7734 27.5L57.7034 27.71H61.9734Z" fill="#FFF5D6"/>
</svg>
